# xmcd
#
# Track frame offsets: 
#        150
#        18885
#        34812
#        52772
#        76375
#        90992
#        111282
#        129230
#        142200
#        159812
#        177937
#        197435
#        216460
#        233570
#        253987
#        275480
#
# Disc length: 4080 seconds
#
# Revision: 0
# Processed by: cddbd v1.5.2PL0 Copyright (c) Steve Scherf et al.
# Submitted via: ExactAudioCopy v0.99pb5
#
DISCID=d10fee10
DTITLE=Various Artist - Alex Band i Przyjaciele - Swiatowe Przeboje
DYEAR=2000
DGENRE=Blues
TTITLE0=Zdzislawa Sosnicka and Zbigniew Wodecki - Zycie jest natchnienie
TTITLE0=m (All Of You) | Z rep. Diana Ross and Julio Iglesias
TTITLE1=Krzysztof Krawczyk and Bohdan Smolen - Dziewczyny, ktore mam na 
TTITLE1=mysli (To All The Girls I've Loved Before) | Z rep. Julio Igle
TTITLE1=sia
TTITLE2=Alex Band - instrumentalnie - Wake Me up Before You Go Go | Z 
TTITLE2=rep. Wham
TTITLE3=Danuta Blazejczyk - Odkrywam Ciebie jeszcze raz (All at Once) 
TTITLE3=| Z rep. Witney Houston
TTITLE4=Alex Band - instrumentalnie - Cry Just a Little Bit | Z rep. S
TTITLE4=hakin' Stevens
TTITLE5=Wojciech Blond - Tylko grzech (It's a Sin) | Z rep. Pet Shop B
TTITLE5=oys
TTITLE6=Alex Band - instrumentalnie - I Just Can't Stop Loving You | Z
TTITLE6=rep. Michael Jackson
TTITLE7=Krystyna Gizowska - Gdzie tamten czas (El Maintenant) | Z rep.
TTITLE7=Shirley Bassey
TTITLE8=Alex Band - instrumentalnie - Never Gonna Give You Up | Z rep.
TTITLE8=Rick Astley
TTITLE9=Zbigniew Wodecki - To co zostaje (Overjoyed) | Z rep. Stevie W
TTITLE9=onder
TTITLE10=Alex Band - instrumentalnie - La Isla Bonita | Z rep. Madonna
TTITLE11=Wojciech Korda - Lubie to (Living Doll) | Z rep. Cliff Richar
TTITLE11=d
TTITLE12=Alex Band - instrumentalnie - Never Ending Story | Z rep. Lim
TTITLE12=ahl
TTITLE13=Krzysztof Krawczyk - Midnight Lady | Z rep. Chris Norman
TTITLE14=Zdzislawa Sosnicka - Znajdz mnie (Somewhere) | Z rep. Barbra 
TTITLE14=Streisand
TTITLE15=Alex Band - instrumentalnie - We Are The World | Z rep. Micha
TTITLE15=el Jackson, Lionel Richie i inni
EXTD=© KOCH Poland 52225-2\n6 64125 22252 7
EXTT0=
EXTT1=
EXTT2=
EXTT3=
EXTT4=
EXTT5=
EXTT6=
EXTT7=
EXTT8=
EXTT9=
EXTT10=
EXTT11=
EXTT12=
EXTT13=
EXTT14=
EXTT15=
PLAYORDER=
